<?xml version="1.0" encoding="UTF-8" standalone="no"?>
<!DOCTYPE svg PUBLIC "-//W3C//DTD SVG 1.1//EN" "http://www.w3.org/Graphics/SVG/1.1/DTD/svg11.dtd">
<svg width="100%" height="100%" viewBox="0 0 3024 3024" version="1.1" xmlns="http://www.w3.org/2000/svg" xmlns:xlink="http://www.w3.org/1999/xlink" xml:space="preserve" xmlns:serif="http://www.serif.com/" style="fill-rule:evenodd;clip-rule:evenodd;stroke-linejoin:round;stroke-miterlimit:2;">
    <g transform="matrix(1.11784,0,0,1.11784,-124.906,-143.318)">
        <circle cx="1464.18" cy="1480.65" r="1352.44" style="fill:rgb(184,19,19);"/>
    </g>
    <g transform="matrix(6.16983,0,0,6.16983,199.828,-66.986)">
        <path d="M278.536,229.013L146.753,229.013L146.753,198.957C146.753,160.394 176.313,129.02 212.645,129.02C248.977,129.02 278.536,160.394 278.536,198.957L278.536,229.013ZM237.792,282.336L237.792,271.527C237.792,269.828 239.169,268.451 240.869,268.451L249.475,268.451C251.174,268.451 252.552,269.828 252.552,271.527L252.552,297.231C252.552,298.113 251.477,298.545 250.867,297.908L239.115,285.631C238.266,284.745 237.792,283.564 237.792,282.336ZM275.955,335.069L271.398,339.829C270.81,340.443 270.032,340.782 269.208,340.782C268.384,340.782 267.605,340.443 267.018,339.829L215.107,285.601C214.452,284.917 213.578,284.541 212.645,284.541C211.711,284.541 210.837,284.917 210.183,285.601L158.272,339.829C157.684,340.443 156.906,340.782 156.082,340.782C155.258,340.782 154.479,340.443 153.892,339.829L149.335,335.069C148.085,333.763 148.085,331.639 149.335,330.333L210.495,266.466C211.673,265.236 213.639,265.236 214.816,266.466L275.955,330.333C277.205,331.639 277.205,333.763 275.955,335.069ZM261.948,382.276C261.948,384.641 260.031,386.558 257.665,386.558L231.886,386.558C229.349,386.558 227.292,384.501 227.292,381.964L227.292,351.151C227.292,348.777 225.367,346.852 222.993,346.852L202.973,346.852C200.599,346.852 198.673,348.777 198.673,351.151L198.673,381.964C198.673,384.501 196.617,386.558 194.079,386.558L167.623,386.558C165.258,386.558 163.341,384.641 163.341,382.276L163.341,343.747C163.341,341.824 164.083,339.976 165.413,338.587L211.158,290.8C211.968,289.954 213.321,289.954 214.132,290.8L259.877,338.587C261.206,339.976 261.948,341.824 261.948,343.747L261.948,382.276ZM318.996,230.797L318.996,198.957C318.996,138.084 271.286,88.561 212.645,88.561C154.189,88.561 106.603,137.772 106.301,198.379L106.294,198.379L106.294,230.797C98.476,234.16 93,241.927 93,250.977L93,401.255C93,413.385 102.833,423.219 114.964,423.219L310.326,423.219C322.456,423.219 332.29,413.385 332.29,401.255L332.29,250.977C332.29,241.927 326.813,234.16 318.996,230.797Z" style="fill:white;fill-rule:nonzero;"/>
    </g>
</svg>
