<?xml version="1.0" encoding="UTF-8" standalone="no"?>
<!DOCTYPE svg PUBLIC "-//W3C//DTD SVG 1.1//EN" "http://www.w3.org/Graphics/SVG/1.1/DTD/svg11.dtd">
<svg width="100%" height="100%" viewBox="0 0 3024 3024" version="1.1" xmlns="http://www.w3.org/2000/svg" xmlns:xlink="http://www.w3.org/1999/xlink" xml:space="preserve" xmlns:serif="http://www.serif.com/" style="fill-rule:evenodd;clip-rule:evenodd;stroke-linejoin:round;stroke-miterlimit:2;">
    <g transform="matrix(1.11784,0,0,1.11784,-124.906,-143.318)">
        <circle cx="1464.18" cy="1480.65" r="1352.44" style="fill:white;"/>
    </g>
    <g transform="matrix(6.1899,0,0,6.1899,-4602.22,-75.5893)">
        <path d="M1051.05,335.578L1046.5,340.338C1045.91,340.953 1045.13,341.292 1044.31,341.292C1043.48,341.292 1042.7,340.953 1042.12,340.338L990.205,286.11C989.551,285.427 988.677,285.05 987.743,285.05C986.811,285.05 985.936,285.427 985.281,286.11L933.37,340.338C932.782,340.953 932.005,341.292 931.181,341.292C930.356,341.292 929.578,340.953 928.99,340.338L924.434,335.578C923.184,334.272 923.184,332.148 924.434,330.842L985.594,266.975C986.771,265.745 988.737,265.745 989.915,266.976L1051.05,330.842C1052.3,332.148 1052.3,334.272 1051.05,335.578ZM1037.05,382.786C1037.05,385.15 1035.13,387.067 1032.76,387.067L1006.99,387.067C1004.45,387.067 1002.39,385.01 1002.39,382.473L1002.39,351.661C1002.39,349.286 1000.47,347.361 998.091,347.361L978.071,347.361C975.697,347.361 973.772,349.286 973.772,351.661L973.772,382.473C973.772,385.01 971.715,387.067 969.178,387.067L942.722,387.067C940.356,387.067 938.439,385.15 938.439,382.786L938.439,344.256C938.439,342.333 939.182,340.485 940.511,339.096L986.256,291.31C987.066,290.463 988.42,290.463 989.23,291.31L1034.98,339.096C1036.3,340.485 1037.05,342.333 1037.05,344.256L1037.05,382.786ZM1012.89,272.037C1012.89,270.337 1014.27,268.96 1015.97,268.96L1024.57,268.96C1026.27,268.96 1027.65,270.337 1027.65,272.037L1027.65,297.741C1027.65,298.623 1026.58,299.054 1025.96,298.417L1014.21,286.141C1013.36,285.254 1012.89,284.073 1012.89,282.845L1012.89,272.037ZM1085.11,229.643L922.065,229.643L922.065,188.162C922.065,149.724 951.529,118.452 987.743,118.452C1023.96,118.452 1053.42,149.724 1053.42,188.162C1053.42,199.298 1062.45,208.326 1073.58,208.326C1084.72,208.326 1093.75,199.298 1093.75,188.162C1093.75,127.487 1046.19,78.124 987.743,78.124C929.292,78.124 881.737,127.487 881.737,188.162L881.737,231.421C873.945,234.773 868.486,242.515 868.486,251.535L868.486,401.326C868.486,413.417 878.288,423.219 890.379,423.219L1085.11,423.219C1097.2,423.219 1107,413.417 1107,401.326L1107,251.535C1107,239.444 1097.2,229.643 1085.11,229.643Z" style="fill:rgb(205,0,0);fill-rule:nonzero;"/>
    </g>
</svg>
